<svg data-v-fde0c5aa="" xmlns="http://www.w3.org/2000/svg" viewBox="0 0 300 300" class="iconLeft"><!----><defs data-v-fde0c5aa=""><!----></defs><rect data-v-fde0c5aa="" fill="#FAF1EE" x="0" y="0" width="300px" height="300px" class="logo-background-square"></rect><defs data-v-fde0c5aa=""><!----></defs><g data-v-fde0c5aa="" id="2536698a-bbf9-426f-b1e0-0b8bbe9aaddb" fill="#2F1911" transform="matrix(1.7233103843982105,0,0,1.7233103843982105,79.46600044905531,135.2915461321176)"><path d="M8.25 11.14C8.13 10.07 7.77 9.27 6.82 8.90C7.97 8.58 8.71 7.80 8.71 6.55C8.71 4.89 7.57 4.16 6.17 3.99C5.70 3.93 5.33 3.92 4.77 3.92L1.25 3.92L1.25 13.58L3.18 13.58L3.18 9.69L4.30 9.69C4.55 9.69 4.79 9.69 5.05 9.70C5.84 9.76 6.23 10.39 6.36 11.42C6.45 12.33 6.59 12.92 6.83 13.58L8.95 13.58C8.55 13.03 8.37 12.32 8.25 11.14ZM3.18 8.25L3.18 5.43L4.59 5.43C4.94 5.43 5.18 5.45 5.40 5.47C6.16 5.57 6.68 5.91 6.68 6.85C6.68 7.78 6.06 8.16 5.29 8.23C5.08 8.25 4.84 8.25 4.51 8.25ZM16.80 9.70C16.80 7.67 15.60 5.94 13.31 5.94C11.03 5.94 9.53 7.60 9.53 9.88C9.53 12.50 11.12 13.78 13.16 13.78C14.91 13.78 16.31 12.89 16.69 11.16L14.76 11.16C14.63 11.96 14.03 12.42 13.20 12.42C12.31 12.42 11.61 11.93 11.48 10.36L16.77 10.36C16.80 10.11 16.80 9.88 16.80 9.70ZM13.23 7.29C14.15 7.29 14.69 7.92 14.81 9.10L11.54 9.10C11.70 7.87 12.33 7.29 13.23 7.29ZM22.46 13.58L24.35 13.58C24.23 12.75 24.21 12.25 24.21 11.69L24.21 9.28C24.21 8.88 24.19 8.48 24.16 8.13C24.05 6.85 23.27 5.94 21.18 5.94C19.40 5.94 18.05 6.89 17.99 8.57L19.87 8.55C19.92 7.74 20.34 7.29 21.11 7.29C21.87 7.29 22.20 7.67 22.26 8.19C22.29 8.44 22.29 8.67 22.29 8.89L22.29 9.04L21.81 9.04C19.11 9.04 17.71 9.97 17.71 11.61C17.71 13.02 18.82 13.78 20.10 13.78C20.80 13.78 21.43 13.64 21.95 13.29L22.32 12.49ZM20.85 12.42C20.16 12.42 19.71 12.11 19.71 11.45C19.71 10.47 20.75 10.12 22.29 10.23L22.29 10.84C22.29 11.87 21.63 12.42 20.85 12.42ZM27.87 3.29L25.94 3.29L25.94 11.19C25.94 11.68 25.94 12.03 25.97 12.36C26.01 13.33 26.61 13.68 27.57 13.68C28 13.68 28.38 13.66 28.76 13.62L28.76 12.29C28.10 12.33 27.93 12.21 27.89 11.83C27.87 11.63 27.87 11.44 27.87 11.14ZM37.13 3.72C34.45 3.72 32.45 5.64 32.45 8.81C32.45 11.89 34.30 13.78 36.99 13.78C39.47 13.78 41.03 12.43 41.24 10.37L41.26 10.23L39.34 10.23L39.31 10.37C39.06 11.58 38.33 12.33 37.07 12.33C35.60 12.33 34.50 11.10 34.50 8.69C34.50 6.50 35.55 5.17 37.10 5.17C38.39 5.17 39.12 5.87 39.35 7.06L39.38 7.20L41.31 7.20L41.30 7.06C41.10 5.15 39.75 3.72 37.13 3.72ZM46.03 5.94C43.55 5.94 42.17 7.59 42.17 9.86C42.17 12.11 43.55 13.78 46.03 13.78C48.51 13.78 49.90 12.11 49.90 9.86C49.90 7.59 48.51 5.94 46.03 5.94ZM46.03 12.42C44.87 12.42 44.17 11.45 44.17 9.86C44.17 8.25 44.87 7.29 46.03 7.29C47.19 7.29 47.89 8.25 47.89 9.86C47.89 11.45 47.19 12.42 46.03 12.42ZM62.22 7.78C62.05 6.76 61.24 5.94 59.82 5.94C59.15 5.94 58.65 6.08 58.23 6.37L57.50 7.35C57.20 6.54 56.43 5.94 55.22 5.94C54.54 5.94 54.05 6.08 53.63 6.37L53.09 7.27L53.09 6.13L51.16 6.13L51.16 13.58L53.09 13.58L53.09 9.76C53.09 8.04 53.56 7.29 54.43 7.29C55.17 7.29 55.61 7.71 55.71 8.48C55.75 8.86 55.76 9.27 55.76 9.70L55.76 13.58L57.68 13.58L57.68 9.76C57.68 8.04 58.17 7.29 59.04 7.29C59.78 7.29 60.20 7.71 60.30 8.48C60.34 8.86 60.35 9.27 60.35 9.70L60.35 13.58L62.29 13.58L62.29 9.14C62.29 8.54 62.27 8.16 62.22 7.78ZM75.04 7.78C74.87 6.76 74.06 5.94 72.65 5.94C71.97 5.94 71.47 6.08 71.05 6.37L70.32 7.35C70.03 6.54 69.26 5.94 68.04 5.94C67.37 5.94 66.88 6.08 66.46 6.37L65.91 7.27L65.91 6.13L63.98 6.13L63.98 13.58L65.91 13.58L65.91 9.76C65.91 8.04 66.39 7.29 67.26 7.29C68.00 7.29 68.43 7.71 68.53 8.48C68.57 8.86 68.59 9.27 68.59 9.70L68.59 13.58L70.50 13.58L70.50 9.76C70.50 8.04 70.99 7.29 71.86 7.29C72.60 7.29 73.02 7.71 73.12 8.48C73.16 8.86 73.18 9.27 73.18 9.70L73.18 13.58L75.11 13.58L75.11 9.14C75.11 8.54 75.10 8.16 75.04 7.78ZM83.57 9.70C83.57 7.67 82.36 5.94 80.08 5.94C77.80 5.94 76.30 7.60 76.30 9.88C76.30 12.50 77.88 13.78 79.93 13.78C81.68 13.78 83.08 12.89 83.45 11.16L81.52 11.16C81.40 11.96 80.79 12.42 79.97 12.42C79.07 12.42 78.37 11.93 78.25 10.36L83.54 10.36C83.57 10.11 83.57 9.88 83.57 9.70ZM80.00 7.29C80.92 7.29 81.45 7.92 81.58 9.10L78.30 9.10C78.47 7.87 79.10 7.29 80.00 7.29ZM88.69 5.95C88.27 5.95 87.78 6.12 87.42 6.45L86.83 7.49L86.83 6.13L84.90 6.13L84.90 13.58L86.83 13.58L86.83 10.16C86.83 8.16 87.63 7.45 89.24 7.56L89.24 6.01C89.07 5.96 88.91 5.95 88.69 5.95ZM93.37 5.94C91.32 5.94 89.64 7.36 89.64 9.91C89.64 12.49 91.17 13.78 93.20 13.78C95.06 13.78 96.43 12.84 96.75 11.00L94.82 11.00C94.63 11.94 94.07 12.42 93.31 12.42C92.34 12.42 91.64 11.63 91.64 9.79C91.64 8.09 92.34 7.29 93.32 7.29C94.12 7.29 94.68 7.74 94.86 8.82L96.77 8.82C96.63 7.17 95.38 5.94 93.37 5.94ZM104.76 9.70C104.76 7.67 103.56 5.94 101.28 5.94C98.99 5.94 97.50 7.60 97.50 9.88C97.50 12.50 99.08 13.78 101.12 13.78C102.87 13.78 104.27 12.89 104.65 11.16L102.72 11.16C102.59 11.96 101.99 12.42 101.16 12.42C100.27 12.42 99.57 11.93 99.44 10.36L104.73 10.36C104.76 10.11 104.76 9.88 104.76 9.70ZM101.19 7.29C102.12 7.29 102.65 7.92 102.77 9.10L99.50 9.10C99.67 7.87 100.30 7.29 101.19 7.29Z"></path></g><defs data-v-fde0c5aa=""><!----></defs><g data-v-fde0c5aa="" id="8c44af0a-a35f-44db-8c0d-40b0845910ba" stroke="none" fill="#B82949" transform="matrix(0.2997158785740335,0,0,0.2997158785740335,39.330900927892266,135.01275776392075)"><defs><style>.cls-1{fill:#010101}</style></defs><g data-name="Shape 118"><path class="cls-1" d="M96.15 60.89a40.18 40.18 0 0 1-3 8.36C89.52 76.49 83.2 82 76.67 86.79a49 49 0 0 1-7.2 4.57C64.05 94 57.93 95 51.89 95.19c-12.82.48-26.34-2.34-36-10.84a39.5 39.5 0 0 1-7.35-8.78A44.13 44.13 0 0 1 9 29.35C17 17.14 30.71 9.64 44.88 6.32a54.67 54.67 0 0 1 10.64-1.54 41.1 41.1 0 0 1 34.09 16.73c8 11.14 9.87 26.05 6.55 39.38M75 12.89c-4.78-2.74-10.35-3.82-15.85-4.13-11.83-.66-24 2.22-33.79 8.87S8.21 34.79 6.23 46.48 7.9 70.85 16.37 79.14a34.45 34.45 0 0 0 21.13 9.62c2.45.2 5.19.24 6.93 2a5.45 5.45 0 0 0 3.62 1.18c17.25 1 34.64-9.34 41.94-25s4.06-35.64-7.82-48.2A31.78 31.78 0 0 0 75 12.89z"></path><path class="cls-1" d="M28 68.87A5.08 5.08 0 0 1 26.89 72a8.38 8.38 0 0 1-2.41 2.62 3.66 3.66 0 0 1-3.42.38 3.41 3.41 0 0 1-1.82-2.77 5.53 5.53 0 0 1 .86-3.3A5.58 5.58 0 0 1 24.21 66 3.47 3.47 0 0 1 28 68.87M22.42 70c-.44.77-.58 2 .26 2.33a1.46 1.46 0 0 0 1.18-.21 2.55 2.55 0 0 0 1.35-1.67 1.41 1.41 0 0 0-1.09-1.66 2 2 0 0 0-1.7 1.21zM58 78.25a5 5 0 0 1 3.45.21 3.29 3.29 0 0 1 2 1.2 2.58 2.58 0 0 1-.45 2.75 25.64 25.64 0 0 0-1.86 2.28 1.84 1.84 0 0 1-2.13.69 3.6 3.6 0 0 1-1.81-1.54 4.91 4.91 0 0 1-.89-3A3 3 0 0 1 58 78.25m2.74 3.24a.76.76 0 0 0-1.38-.3 1.51 1.51 0 0 0 .67.69.52.52 0 0 0 .72-.41zM82.31 51.85A3.21 3.21 0 0 1 81 49.06a4 4 0 0 1 4.15-3.19 3.79 3.79 0 0 1 3.28 4 3.62 3.62 0 0 1-4.13 3 4.49 4.49 0 0 1-2-1.08m3.48-2.17a1.16 1.16 0 1 0-1.83.83 1.22 1.22 0 0 0 1.83-.77z"></path><path class="cls-1" d="M79.28 68.41c-1.21 2.39-2.72 5-5.27 5.8-4 1.32-7.78-2.15-10.73-5.12a96.61 96.61 0 0 0-11.44-9.85c1.69 5.65 3.38 11.64 2 17.37a7.56 7.56 0 0 1-3.24 5 9.65 9.65 0 0 1-3.48.91 24.15 24.15 0 0 1-8.36.12C36 82 33.34 80.23 32.5 77.55c-1.06-3.38 1-6.88 2.9-9.84l9-13.85L30.62 59a31.53 31.53 0 0 1-8 2.18 10.62 10.62 0 0 1-7.81-2.09c-2.53-2.14-3.46-5.65-3.53-9-.1-5.18 2.08-10.88 6.82-13s10.07-.05 14.78 2l7.71 3.29a77.55 77.55 0 0 1-6.46-10.28c-1.81-3.46-3.33-7.81-1.23-11.11a17.75 17.75 0 0 1 17.66-7.73 9.32 9.32 0 0 1 4.87 2.21c3 2.89 2.47 7.75 1.71 11.85L55 38.82l10.46-15.2c1.58-2.3 3.57-4.84 6.37-4.93 2.55-.08 4.64 2 6.06 4.08a25.18 25.18 0 0 1 4 17.72c-.41 2.63-1.37 5.38-3.55 6.9-1.72 1.2-3.92 1.44-6 1.64l-7.1.69c4.69 2.16 11 .47 14.67 4.14a8.73 8.73 0 0 1 2.07 7.25 23 23 0 0 1-2.63 7.31m-29-21.58l4.68-23a6.88 6.88 0 0 0-3.87-7.19 10.19 10.19 0 0 0-8.5.15 20.24 20.24 0 0 0-6.81 5.43c-1.42 1.63-.7 4.15.21 6.11a52.82 52.82 0 0 0 14.3 18.47M73.81 23a2.5 2.5 0 0 0-2.27-1.11 2.56 2.56 0 0 0-1.17.87c-6.7 7.48-11.5 16.41-16.24 25.24a.89.89 0 0 0-.12.88.9.9 0 0 0 1 .16A111.47 111.47 0 0 1 74.7 46c1.73-.11 2.79-1.93 3.31-3.59A20.38 20.38 0 0 0 73.81 23M14.58 52.21a7.65 7.65 0 0 0 1.52 3.55c2.24 2.61 6.36 2.14 9.7 1.29a111.27 111.27 0 0 0 20.4-7.39c-2.11-2-4.85-3.24-7.53-4.41l-11.29-4.92a13.71 13.71 0 0 0-3.85-1.24 8.27 8.27 0 0 0-7.71 4.15 12.76 12.76 0 0 0-1.23 9m57.95 2.07c-6.81-1.54-14-2.78-20.7-.92a245.24 245.24 0 0 0 18.45 17.3 3.43 3.43 0 0 0 4.14-.17 8.45 8.45 0 0 0 2.46-3.68 35.53 35.53 0 0 0 1.62-4.9 6.83 6.83 0 0 0 .16-3.72c-.78-2.43-3.65-3.37-6.14-3.94M50.62 75.47c1.52-6.59-2-13.25-2.35-20a.6.6 0 0 0-.81-.47 1.74 1.74 0 0 0-.77.72q-4.77 6.78-9.18 13.8a13.39 13.39 0 0 0-2 4.2 4.67 4.67 0 0 0 1.07 4.34c1.75 1.67 4.54 1.09 6.95 1.24 1.58.1 3.27.53 4.69-.17a5.22 5.22 0 0 0 2.4-3.66z"></path><path class="cls-1" d="M23.66 32.06a3.49 3.49 0 0 1-1.62.21 2.61 2.61 0 0 1-2-2.8 3.75 3.75 0 0 1 2.19-2.89c1.57-.75 3.86-.31 4.42 1.35s-1.18 3.55-3 4.14m.54-2.38a1.11 1.11 0 0 0 .44-.69 1.1 1.1 0 0 0-.71-.42 1.1 1.1 0 0 0-.42.71 1.08 1.08 0 0 0 .71.42zM61.44 18.42a3 3 0 0 1-.22-3.13 3.2 3.2 0 0 1 1.25-1.46 2.76 2.76 0 0 1 3.8 1.51 3.12 3.12 0 0 1-1.91 3.76 2.7 2.7 0 0 1-2.92-.68z"></path></g></g><!----></svg>