<svg data-v-fde0c5aa="" xmlns="http://www.w3.org/2000/svg" viewBox="0 0 300 300" class="font"><!----><defs data-v-fde0c5aa=""><!----></defs><rect data-v-fde0c5aa="" fill="#FAF1EE" x="0" y="0" width="300px" height="300px" class="logo-background-square"></rect><defs data-v-fde0c5aa=""><!----></defs><g data-v-fde0c5aa="" id="735e904b-32c8-4a02-8064-74125f01b8d6" fill="#2F1911" transform="matrix(2.125398468357251,0,0,2.125398468357251,37.343251914553434,131.85972439688095)"><path d="M8.25 11.14C8.13 10.07 7.77 9.27 6.82 8.90C7.97 8.58 8.71 7.80 8.71 6.55C8.71 4.89 7.57 4.16 6.17 3.99C5.70 3.93 5.33 3.92 4.77 3.92L1.25 3.92L1.25 13.58L3.18 13.58L3.18 9.69L4.30 9.69C4.55 9.69 4.79 9.69 5.05 9.70C5.84 9.76 6.23 10.39 6.36 11.42C6.45 12.33 6.59 12.92 6.83 13.58L8.95 13.58C8.55 13.03 8.37 12.32 8.25 11.14ZM3.18 8.25L3.18 5.43L4.59 5.43C4.94 5.43 5.18 5.45 5.40 5.47C6.16 5.57 6.68 5.91 6.68 6.85C6.68 7.78 6.06 8.16 5.29 8.23C5.08 8.25 4.84 8.25 4.51 8.25ZM16.80 9.70C16.80 7.67 15.60 5.94 13.31 5.94C11.03 5.94 9.53 7.60 9.53 9.88C9.53 12.50 11.12 13.78 13.16 13.78C14.91 13.78 16.31 12.89 16.69 11.16L14.76 11.16C14.63 11.96 14.03 12.42 13.20 12.42C12.31 12.42 11.61 11.93 11.48 10.36L16.77 10.36C16.80 10.11 16.80 9.88 16.80 9.70ZM13.23 7.29C14.15 7.29 14.69 7.92 14.81 9.10L11.54 9.10C11.70 7.87 12.33 7.29 13.23 7.29ZM22.46 13.58L24.35 13.58C24.23 12.75 24.21 12.25 24.21 11.69L24.21 9.28C24.21 8.88 24.19 8.48 24.16 8.13C24.05 6.85 23.27 5.94 21.18 5.94C19.40 5.94 18.05 6.89 17.99 8.57L19.87 8.55C19.92 7.74 20.34 7.29 21.11 7.29C21.87 7.29 22.20 7.67 22.26 8.19C22.29 8.44 22.29 8.67 22.29 8.89L22.29 9.04L21.81 9.04C19.11 9.04 17.71 9.97 17.71 11.61C17.71 13.02 18.82 13.78 20.10 13.78C20.80 13.78 21.43 13.64 21.95 13.29L22.32 12.49ZM20.85 12.42C20.16 12.42 19.71 12.11 19.71 11.45C19.71 10.47 20.75 10.12 22.29 10.23L22.29 10.84C22.29 11.87 21.63 12.42 20.85 12.42ZM27.87 3.29L25.94 3.29L25.94 11.19C25.94 11.68 25.94 12.03 25.97 12.36C26.01 13.33 26.61 13.68 27.57 13.68C28 13.68 28.38 13.66 28.76 13.62L28.76 12.29C28.10 12.33 27.93 12.21 27.89 11.83C27.87 11.63 27.87 11.44 27.87 11.14ZM37.13 3.72C34.45 3.72 32.45 5.64 32.45 8.81C32.45 11.89 34.30 13.78 36.99 13.78C39.47 13.78 41.03 12.43 41.24 10.37L41.26 10.23L39.34 10.23L39.31 10.37C39.06 11.58 38.33 12.33 37.07 12.33C35.60 12.33 34.50 11.10 34.50 8.69C34.50 6.50 35.55 5.17 37.10 5.17C38.39 5.17 39.12 5.87 39.35 7.06L39.38 7.20L41.31 7.20L41.30 7.06C41.10 5.15 39.75 3.72 37.13 3.72ZM46.03 5.94C43.55 5.94 42.17 7.59 42.17 9.86C42.17 12.11 43.55 13.78 46.03 13.78C48.51 13.78 49.90 12.11 49.90 9.86C49.90 7.59 48.51 5.94 46.03 5.94ZM46.03 12.42C44.87 12.42 44.17 11.45 44.17 9.86C44.17 8.25 44.87 7.29 46.03 7.29C47.19 7.29 47.89 8.25 47.89 9.86C47.89 11.45 47.19 12.42 46.03 12.42ZM62.22 7.78C62.05 6.76 61.24 5.94 59.82 5.94C59.15 5.94 58.65 6.08 58.23 6.37L57.50 7.35C57.20 6.54 56.43 5.94 55.22 5.94C54.54 5.94 54.05 6.08 53.63 6.37L53.09 7.27L53.09 6.13L51.16 6.13L51.16 13.58L53.09 13.58L53.09 9.76C53.09 8.04 53.56 7.29 54.43 7.29C55.17 7.29 55.61 7.71 55.71 8.48C55.75 8.86 55.76 9.27 55.76 9.70L55.76 13.58L57.68 13.58L57.68 9.76C57.68 8.04 58.17 7.29 59.04 7.29C59.78 7.29 60.20 7.71 60.30 8.48C60.34 8.86 60.35 9.27 60.35 9.70L60.35 13.58L62.29 13.58L62.29 9.14C62.29 8.54 62.27 8.16 62.22 7.78ZM75.04 7.78C74.87 6.76 74.06 5.94 72.65 5.94C71.97 5.94 71.47 6.08 71.05 6.37L70.32 7.35C70.03 6.54 69.26 5.94 68.04 5.94C67.37 5.94 66.88 6.08 66.46 6.37L65.91 7.27L65.91 6.13L63.98 6.13L63.98 13.58L65.91 13.58L65.91 9.76C65.91 8.04 66.39 7.29 67.26 7.29C68.00 7.29 68.43 7.71 68.53 8.48C68.57 8.86 68.59 9.27 68.59 9.70L68.59 13.58L70.50 13.58L70.50 9.76C70.50 8.04 70.99 7.29 71.86 7.29C72.60 7.29 73.02 7.71 73.12 8.48C73.16 8.86 73.18 9.27 73.18 9.70L73.18 13.58L75.11 13.58L75.11 9.14C75.11 8.54 75.10 8.16 75.04 7.78ZM83.57 9.70C83.57 7.67 82.36 5.94 80.08 5.94C77.80 5.94 76.30 7.60 76.30 9.88C76.30 12.50 77.88 13.78 79.93 13.78C81.68 13.78 83.08 12.89 83.45 11.16L81.52 11.16C81.40 11.96 80.79 12.42 79.97 12.42C79.07 12.42 78.37 11.93 78.25 10.36L83.54 10.36C83.57 10.11 83.57 9.88 83.57 9.70ZM80.00 7.29C80.92 7.29 81.45 7.92 81.58 9.10L78.30 9.10C78.47 7.87 79.10 7.29 80.00 7.29ZM88.69 5.95C88.27 5.95 87.78 6.12 87.42 6.45L86.83 7.49L86.83 6.13L84.90 6.13L84.90 13.58L86.83 13.58L86.83 10.16C86.83 8.16 87.63 7.45 89.24 7.56L89.24 6.01C89.07 5.96 88.91 5.95 88.69 5.95ZM93.37 5.94C91.32 5.94 89.64 7.36 89.64 9.91C89.64 12.49 91.17 13.78 93.20 13.78C95.06 13.78 96.43 12.84 96.75 11.00L94.82 11.00C94.63 11.94 94.07 12.42 93.31 12.42C92.34 12.42 91.64 11.63 91.64 9.79C91.64 8.09 92.34 7.29 93.32 7.29C94.12 7.29 94.68 7.74 94.86 8.82L96.77 8.82C96.63 7.17 95.38 5.94 93.37 5.94ZM104.76 9.70C104.76 7.67 103.56 5.94 101.28 5.94C98.99 5.94 97.50 7.60 97.50 9.88C97.50 12.50 99.08 13.78 101.12 13.78C102.87 13.78 104.27 12.89 104.65 11.16L102.72 11.16C102.59 11.96 101.99 12.42 101.16 12.42C100.27 12.42 99.57 11.93 99.44 10.36L104.73 10.36C104.76 10.11 104.76 9.88 104.76 9.70ZM101.19 7.29C102.12 7.29 102.65 7.92 102.77 9.10L99.50 9.10C99.67 7.87 100.30 7.29 101.19 7.29Z"></path></g><!----><!----></svg>